<?xml version="1.0" encoding="UTF-8" standalone="no"?>
<!-- Created with Inkscape (http://www.inkscape.org/) -->

<svg
   width="256"
   height="256"
   viewBox="0 0 256 256"
   version="1.1"
   id="svg1"
   xml:space="preserve"
   xmlns:xlink="http://www.w3.org/1999/xlink"
   xmlns="http://www.w3.org/2000/svg"
   xmlns:svg="http://www.w3.org/2000/svg"><defs
     id="defs1"><linearGradient
       id="linearGradient9"><stop
         style="stop-color:#44b3bb;stop-opacity:1;"
         offset="0"
         id="stop10" /><stop
         style="stop-color:#44bb8c;stop-opacity:1;"
         offset="1"
         id="stop11" /></linearGradient><linearGradient
       id="linearGradient8"><stop
         style="stop-color:#03a3ff;stop-opacity:1;"
         offset="0"
         id="stop8" /><stop
         style="stop-color:#dc4343;stop-opacity:1;"
         offset="1"
         id="stop9" /></linearGradient><radialGradient
       xlink:href="#linearGradient8"
       id="radialGradient9"
       cx="195.5396"
       cy="128.97429"
       fx="195.5396"
       fy="128.97429"
       r="151.18111"
       gradientTransform="matrix(-0.01314074,-1.1900709,2.3488123,-0.02565305,-93.484186,339.11441)"
       gradientUnits="userSpaceOnUse" /><radialGradient
       xlink:href="#linearGradient9"
       id="radialGradient11"
       cx="85.340759"
       cy="91.045914"
       fx="85.340759"
       fy="91.045914"
       r="74.928543"
       gradientTransform="matrix(1.7649373,0.21823388,-0.26039245,2.1058891,-24.841466,-80.736344)"
       gradientUnits="userSpaceOnUse" /></defs><g
     id="layer1"><path
       fill="currentColor"
       d="m 150,181.05086 q -11.2057,0 -19.17862,-7.9297 -7.97324,-7.92936 -7.98661,-19.08749 V 45.965874 q 0,-11.1445 7.98661,-19.073863 Q 138.80799,18.962312 150,18.949015 h 108.6612 q 11.20569,0 19.19231,7.942996 7.98659,7.942976 7.97324,19.073863 V 154.03367 q 0,11.14449 -7.97324,19.08749 -7.97293,7.943 -19.19231,7.9297 z M 82.086798,45.965874 q -5.772848,0 -9.67098,-3.890433 -3.898105,-3.890452 -3.911788,-9.618164 -0.01312,-5.727377 3.911788,-9.617829 3.925507,-3.890433 9.67098,-3.890433 5.745454,0 9.68433,3.890433 3.93885,3.890452 3.898105,9.617829 -0.03252,5.727712 -3.911797,9.631777 -3.871062,3.903729 -9.670638,3.87682 m -54.33077,0 q -5.772532,0 -9.670958,-3.890433 -3.898126,-3.890452 -3.911813,-9.618164 -0.01309,-5.727377 3.911813,-9.617829 3.925483,-3.890433 9.670958,-3.890433 5.745456,0 9.684328,3.890433 3.939189,3.890452 3.898444,9.617829 -0.03253,5.727712 -3.911814,9.631777 -3.87105,3.903729 -9.670958,3.87682 m 0,67.542346 q -5.772532,0 -9.670958,-3.89045 -3.898126,-3.89046 -3.911813,-9.617832 -0.01309,-5.727714 3.911813,-9.618149 3.925483,-3.890452 9.670958,-3.890452 5.745456,0 9.684328,3.890452 3.939189,3.890435 3.898444,9.618149 -0.03253,5.727372 -3.911814,9.631442 -3.87105,3.90407 -9.670958,3.87684 m 0,67.54264 q -5.772532,0 -9.670958,-3.89043 -3.898126,-3.89046 -3.911813,-9.61817 -0.01309,-5.72769 3.911813,-9.61814 3.925483,-3.89045 9.670958,-3.89045 5.745456,0 9.684328,3.89045 3.939189,3.89045 3.898444,9.61814 -0.03253,5.72771 -3.911814,9.63144 -3.87105,3.90406 -9.670958,3.87716 m 54.33077,0 q -5.772848,0 -9.67098,-3.89043 -3.898105,-3.89046 -3.911788,-9.61817 -0.01312,-5.72769 3.911788,-9.61814 3.925507,-3.89045 9.67098,-3.89045 5.745454,0 9.68433,3.89045 3.93885,3.89045 3.898105,9.61814 -0.03252,5.72771 -3.911797,9.63144 -3.871062,3.90406 -9.670638,3.87716"
       id="path1-2"
       style="display:none;fill:url(#radialGradient9);stroke:#000000;stroke-width:21.2598;stroke-linecap:round;stroke-linejoin:round;stroke-dasharray:none;stroke-opacity:1;paint-order:stroke fill markers" /><path
       fill="currentColor"
       d="m 100.99487,27.999391 h 54.01026 c 11.20001,0 20.08206,0 27.23078,0.585838 7.32308,0.595701 13.50769,1.846159 19.16923,4.718042 a 48.717945,48.717945 0 0 1 21.28204,21.302387 c 2.88205,5.63988 4.13335,11.834835 4.72819,19.157903 C 228,80.912121 228,89.794343 228,100.99432 v 54.01011 c 0,11.19999 0,20.08221 -0.58463,27.23077 -0.59495,7.32308 -1.84614,13.50769 -4.71793,19.16922 a 48.717945,48.717945 0 0 1 -21.2923,21.28222 c -5.66154,2.88197 -11.84615,4.13317 -19.16923,4.72812 -7.14872,0.58585 -16.03077,0.58585 -27.23078,0.58585 h -54.01026 c -11.199995,0 -20.082039,0 -27.230763,-0.58585 -7.323076,-0.59568 -13.507691,-1.84615 -19.158965,-4.71803 A 48.717945,48.717945 0 0 1 33.312837,201.40442 C 30.43077,195.74289 29.179495,189.55828 28.584615,182.2352 28,175.08664 28,166.20442 28,155.00443 V 100.99432 C 28,89.794343 28,80.912121 28.584615,73.763561 29.17957,66.440491 30.43077,60.25588 33.302572,54.604429 A 48.717945,48.717945 0 0 1 54.605142,33.312132 C 60.246151,30.430159 66.441031,29.178955 73.764107,28.584 80.912831,27.99939 89.794875,27.99939 100.99487,27.99939 m 65.46666,15.415379 V 212.584 a 205.12818,205.12818 0 0 0 14.52308,-0.50217 c 6.35899,-0.51199 10.3077,-1.50891 13.43592,-3.09734 a 33.333332,33.333332 0 0 0 14.56409,-14.56468 c 1.58966,-3.12812 2.57437,-7.07691 3.09743,-13.43581 0.52308,-6.46155 0.53343,-14.70769 0.53343,-26.31803 V 101.3328 c 0,-11.610346 0,-19.866835 -0.53343,-26.318032 -0.51273,-6.358898 -1.50769,-10.307687 -3.09743,-13.435814 A 33.333332,33.333332 0 0 0 194.42053,47.014773 c -3.12822,-1.589661 -7.07693,-2.574278 -13.43592,-3.097351 A 205.12818,205.12818 0 0 0 166.46153,43.405415 M 112.92308,91.79531 a 7.692307,7.692307 0 0 0 -10.87179,0 l -30.769226,30.76923 a 7.692307,7.692307 0 0 0 0,10.87164 l 30.769226,30.76923 A 7.692307,7.692307 0 1 0 112.92308,153.3328 L 87.589753,127.99938 112.92308,102.66596 a 7.692307,7.692307 0 0 0 0,-10.87163"
       id="path1-7"
       style="fill:url(#radialGradient11);stroke-width:0.416929;stroke-dasharray:none" /></g></svg>
