<?xml version="1.0" encoding="UTF-8" standalone="no"?>
<!-- Created with Inkscape (http://www.inkscape.org/) -->

<svg
   width="256"
   height="256"
   viewBox="0 0 256 256"
   version="1.1"
   id="svg1"
   xml:space="preserve"
   sodipodi:docname="icon.svg"
   inkscape:version="1.4.2 (ebf0e940d0, 2025-05-08)"
   inkscape:export-filename="icon.svg"
   inkscape:export-xdpi="128"
   inkscape:export-ydpi="128"
   xmlns:inkscape="http://www.inkscape.org/namespaces/inkscape"
   xmlns:sodipodi="http://sodipodi.sourceforge.net/DTD/sodipodi-0.dtd"
   xmlns:xlink="http://www.w3.org/1999/xlink"
   xmlns="http://www.w3.org/2000/svg"
   xmlns:svg="http://www.w3.org/2000/svg"><sodipodi:namedview
     id="namedview1"
     pagecolor="#000011"
     bordercolor="#222233"
     borderopacity="1"
     inkscape:showpageshadow="0"
     inkscape:pageopacity="0"
     inkscape:pagecheckerboard="1"
     inkscape:deskcolor="#111122"
     showgrid="false"
     inkscape:zoom="0.3143869"
     inkscape:cx="1062.3852"
     inkscape:cy="174.94367"
     inkscape:window-width="2520"
     inkscape:window-height="930"
     inkscape:window-x="1080"
     inkscape:window-y="110"
     inkscape:window-maximized="1"
     inkscape:current-layer="svg1" /><defs
     id="defs1"><linearGradient
       id="linearGradient9"><stop
         style="stop-color:#44b3bb;stop-opacity:1;"
         offset="0"
         id="stop10" /><stop
         style="stop-color:#44bb8c;stop-opacity:1;"
         offset="1"
         id="stop11" /></linearGradient><linearGradient
       id="linearGradient8"><stop
         style="stop-color:#03a3ff;stop-opacity:1;"
         offset="0"
         id="stop8" /><stop
         style="stop-color:#dc4343;stop-opacity:1;"
         offset="1"
         id="stop9" /></linearGradient><radialGradient
       xlink:href="#linearGradient8"
       id="radialGradient9"
       cx="195.5396"
       cy="128.97429"
       fx="195.5396"
       fy="128.97429"
       r="151.18111"
       gradientTransform="matrix(-0.01314074,-1.1900709,2.3488123,-0.02565305,-93.484186,339.11441)"
       gradientUnits="userSpaceOnUse" /><radialGradient
       xlink:href="#linearGradient9"
       id="radialGradient11"
       cx="88.900406"
       cy="89.602631"
       fx="88.900406"
       fy="89.602631"
       r="74.928543"
       gradientTransform="matrix(1.1588653,0.21751755,-0.28821731,1.5355314,32.32527,-25.648587)"
       gradientUnits="userSpaceOnUse" /></defs><path
     sodipodi:type="star"
     style="display:none;opacity:1;fill:#110011;fill-rule:evenodd;stroke:#000000;stroke-width:1.5263;stroke-linecap:round;stroke-linejoin:round;paint-order:stroke fill markers"
     id="path1"
     inkscape:flatsided="false"
     sodipodi:sides="4"
     sodipodi:cx="-34.775448"
     sodipodi:cy="45.20808"
     sodipodi:r1="148.37976"
     sodipodi:r2="132.05798"
     sodipodi:arg1="2.3396214"
     sodipodi:arg2="3.1250196"
     inkscape:rounded="0.33"
     inkscape:randomized="2.7755576e-17"
     d="m -137.9426,151.85278 c -25.70396,-24.86579 -28.28002,-68.697983 -28.8727,-104.456196 -0.59267,-35.75821 0.52936,-79.651697 25.39515,-105.355655 24.86579,-25.703961 68.697985,-28.280018 104.456198,-28.872697 35.7582102,-0.592678 79.651697,0.529361 105.355656,25.395147 25.703961,24.865789 28.280018,68.6979845 28.872696,104.456197 0.592678,35.75821 -0.52936,79.651694 -25.395147,105.355654 -24.865789,25.70396 -68.697984,28.28002 -104.456197,28.8727 -35.75821,0.59268 -79.651696,-0.52936 -105.355656,-25.39515 z"
     transform="matrix(0.87411663,0,0,0.87411663,158.3978,88.482865)" /><g
     id="layer1"
     transform="matrix(1.2,0,0,1.2,-25.6,-25.6)"
     style="stroke-width:0.833333"><path
       fill="currentColor"
       d="m 100.99487,27.999391 h 54.01026 c 11.20001,0 20.08206,0 27.23078,0.585838 7.32308,0.595701 13.50769,1.846159 19.16923,4.718042 a 48.717945,48.717945 0 0 1 21.28204,21.302387 c 2.88205,5.63988 4.13335,11.834835 4.72819,19.157903 C 228,80.912121 228,89.794343 228,100.99432 v 54.01011 c 0,11.19999 0,20.08221 -0.58463,27.23077 -0.59495,7.32308 -1.84614,13.50769 -4.71793,19.16922 a 48.717945,48.717945 0 0 1 -21.2923,21.28222 c -5.66154,2.88197 -11.84615,4.13317 -19.16923,4.72812 -7.14872,0.58585 -16.03077,0.58585 -27.23078,0.58585 h -54.01026 c -11.199995,0 -20.082039,0 -27.230763,-0.58585 -7.323076,-0.59568 -13.507691,-1.84615 -19.158965,-4.71803 A 48.717945,48.717945 0 0 1 33.312837,201.40442 C 30.43077,195.74289 29.179495,189.55828 28.584615,182.2352 28,175.08664 28,166.20442 28,155.00443 V 100.99432 C 28,89.794343 28,80.912121 28.584615,73.763561 29.17957,66.440491 30.43077,60.25588 33.302572,54.604429 A 48.717945,48.717945 0 0 1 54.605142,33.312132 C 60.246151,30.430159 66.441031,29.178955 73.764107,28.584 80.912831,27.99939 89.794875,27.99939 100.99487,27.99939 m 65.46666,15.415379 V 212.584 a 205.12818,205.12818 0 0 0 14.52308,-0.50217 c 6.35899,-0.51199 10.3077,-1.50891 13.43592,-3.09734 a 33.333332,33.333332 0 0 0 14.56409,-14.56468 c 1.58966,-3.12812 2.57437,-7.07691 3.09743,-13.43581 0.52308,-6.46155 0.53343,-14.70769 0.53343,-26.31803 V 101.3328 c 0,-11.610346 0,-19.866835 -0.53343,-26.318032 -0.51273,-6.358898 -1.50769,-10.307687 -3.09743,-13.435814 A 33.333332,33.333332 0 0 0 194.42053,47.014773 c -3.12822,-1.589661 -7.07693,-2.574278 -13.43592,-3.097351 A 205.12818,205.12818 0 0 0 166.46153,43.405415 M 112.92308,91.79531 a 7.692307,7.692307 0 0 0 -10.87179,0 l -30.769226,30.76923 a 7.692307,7.692307 0 0 0 0,10.87164 l 30.769226,30.76923 A 7.692307,7.692307 0 1 0 112.92308,153.3328 L 87.589753,127.99938 112.92308,102.66596 a 7.692307,7.692307 0 0 0 0,-10.87163"
       id="path1-7"
       style="fill:url(#radialGradient11);stroke:none;stroke-width:12.5984;stroke-linecap:round;stroke-linejoin:round;stroke-dasharray:none;stroke-opacity:1;paint-order:stroke markers fill" /></g></svg>
